<?xml version="1.0" encoding="utf-8"?>
<!-- Generated by IcoMoon.io -->
<!DOCTYPE svg PUBLIC "-//W3C//DTD SVG 1.1//EN" "http://www.w3.org/Graphics/SVG/1.1/DTD/svg11.dtd">
<svg version="1.1" xmlns="http://www.w3.org/2000/svg" xmlns:xlink="http://www.w3.org/1999/xlink" width="87" height="256" viewBox="0 0 87 256">
<path fill="#fff" d="M85 137.143c0 1.143-0.572 2.429-1.428 3.286l-66.572 66.571c-0.857 0.857-2.143 1.429-3.286 1.429s-2.428-0.571-3.286-1.429l-7.143-7.143c-0.857-0.857-1.429-2-1.429-3.286 0-1.143 0.571-2.429 1.429-3.286l56.143-56.143-56.143-56.143c-0.857-0.857-1.429-2.143-1.429-3.286s0.571-2.428 1.429-3.286l7.143-7.143c0.857-0.857 2.143-1.428 3.286-1.428s2.428 0.572 3.286 1.428l66.572 66.572c0.857 0.857 1.428 2.143 1.428 3.286z"></path>
</svg>
