<?xml version="1.0" encoding="utf-8"?>
<!-- Generated by IcoMoon.io -->
<!DOCTYPE svg PUBLIC "-//W3C//DTD SVG 1.1//EN" "http://www.w3.org/Graphics/SVG/1.1/DTD/svg11.dtd">
<svg version="1.1" xmlns="http://www.w3.org/2000/svg" xmlns:xlink="http://www.w3.org/1999/xlink" width="238" height="256" viewBox="0 0 238 256">
<path fill="#fff" d="M234.143 68.286c3.571 5.143 4.571 11.857 2.571 18.428l-39.286 129.429c-3.571 12.143-16.143 21.571-28.428 21.571h-131.857c-14.572 0-30.143-11.572-35.428-26.428-2.286-6.428-2.286-12.714-0.286-18.143 0.286-2.857 0.857-5.714 1-9.143 0.143-2.286-1.143-4.143-0.857-5.857 0.571-3.429 3.571-5.857 5.857-9.714 4.286-7.143 9.143-18.714 10.714-26.143 0.714-2.714-0.714-5.857 0-8.286 0.714-2.714 3.428-4.714 4.857-7.286 3.857-6.572 8.857-19.286 9.572-26 0.286-3-1.143-6.286-0.286-8.572 1-3.286 4.143-4.714 6.286-7.572 3.428-4.714 9.143-18.286 10-25.857 0.286-2.428-1.143-4.857-0.714-7.428 0.572-2.714 4-5.572 6.286-8.857 6-8.857 7.143-28.428 25.286-23.286l-0.143 0.428c2.428-0.572 4.857-1.286 7.286-1.286h108.714c6.714 0 12.714 3 16.286 8 3.714 5.143 4.572 11.857 2.571 18.572l-39.143 129.429c-6.714 22-10.428 26.857-28.572 26.857h-124.143c-1.857 0-4.143 0.429-5.428 2.143-1.143 1.714-1.286 3-0.143 6.143 2.857 8.286 12.714 10 20.572 10h131.857c5.286 0 11.428-3 13-8.143l42.857-141c0.857-2.714 0.857-5.572 0.714-8.143 3.286 1.286 6.286 3.286 8.429 6.143zM82.143 68.572c-0.857 2.572 0.572 4.572 3.143 4.572h86.857c2.429 0 5.143-2 6-4.572l3-9.143c0.857-2.572-0.571-4.572-3.143-4.572h-86.857c-2.428 0-5.143 2-6 4.572zM70.286 105.143c-0.857 2.572 0.572 4.572 3.143 4.572h86.857c2.429 0 5.143-2 6-4.572l3-9.143c0.857-2.572-0.571-4.572-3.143-4.572h-86.857c-2.428 0-5.143 2-6 4.572z"></path>
</svg>
