<?xml version="1.0" encoding="utf-8"?>
<!-- Generated by IcoMoon.io -->
<!DOCTYPE svg PUBLIC "-//W3C//DTD SVG 1.1//EN" "http://www.w3.org/Graphics/SVG/1.1/DTD/svg11.dtd">
<svg version="1.1" xmlns="http://www.w3.org/2000/svg" xmlns:xlink="http://www.w3.org/1999/xlink" width="274" height="256" viewBox="0 0 274 256">
<path fill="#fff" d="M88.143 199.857l-7.143 7.143c-1.857 1.857-4.714 1.857-6.572 0l-66.572-66.572c-1.857-1.857-1.857-4.714 0-6.572l66.572-66.572c1.857-1.857 4.714-1.857 6.572 0l7.143 7.143c1.857 1.857 1.857 4.714 0 6.572l-56.143 56.143 56.143 56.143c1.857 1.857 1.857 4.714 0 6.571zM172.571 47.428l-53.286 184.429c-0.714 2.429-3.286 3.857-5.572 3.143l-8.857-2.429c-2.428-0.714-3.857-3.286-3.143-5.714l53.286-184.429c0.714-2.428 3.286-3.857 5.571-3.143l8.857 2.428c2.429 0.714 3.857 3.286 3.143 5.714zM266.428 140.429l-66.572 66.571c-1.857 1.857-4.714 1.857-6.572 0l-7.143-7.143c-1.857-1.857-1.857-4.714 0-6.571l56.143-56.143-56.143-56.143c-1.857-1.857-1.857-4.714 0-6.572l7.143-7.143c1.857-1.857 4.714-1.857 6.572 0l66.572 66.572c1.857 1.857 1.857 4.714 0 6.571z"></path>
</svg>
