<?xml version="1.0" encoding="utf-8"?>
<!-- Generated by IcoMoon.io -->
<!DOCTYPE svg PUBLIC "-//W3C//DTD SVG 1.1//EN" "http://www.w3.org/Graphics/SVG/1.1/DTD/svg11.dtd">
<svg version="1.1" xmlns="http://www.w3.org/2000/svg" xmlns:xlink="http://www.w3.org/1999/xlink" width="256" height="256" viewBox="0 0 256 256">
<path fill="#fff" d="M30.857 167l86.143 57.428v-51.286l-47.714-31.857zM22 146.429l27.572-18.429-27.572-18.428v36.857zM139 224.429l86.143-57.429-38.429-25.714-47.714 31.857v51.286zM128 154l38.857-26-38.857-26-38.857 26zM69.286 114.714l47.714-31.857v-51.286l-86.143 57.429zM206.429 128l27.571 18.428v-36.857zM186.714 114.714l38.428-25.714-86.143-57.428v51.286zM256 89v78c0 3.571-1.857 7.143-4.857 9.143l-117 78c-1.857 1.143-4 1.857-6.143 1.857s-4.286-0.714-6.143-1.857l-117-78c-3-2-4.857-5.571-4.857-9.143v-78c0-3.572 1.857-7.143 4.857-9.143l117-78c1.857-1.143 4-1.857 6.143-1.857s4.286 0.714 6.143 1.857l117 78c3 2 4.857 5.572 4.857 9.143z"></path>
</svg>
