<?xml version="1.0" encoding="utf-8"?>
<!-- Generated by IcoMoon.io -->
<!DOCTYPE svg PUBLIC "-//W3C//DTD SVG 1.1//EN" "http://www.w3.org/Graphics/SVG/1.1/DTD/svg11.dtd">
<svg version="1.1" xmlns="http://www.w3.org/2000/svg" xmlns:xlink="http://www.w3.org/1999/xlink" width="219" height="256" viewBox="0 0 219 256">
<path fill="#fff" d="M109.714 109.714c43 0 86.143-7.714 109.714-24.286v24.286c0 20.143-49.143 36.571-109.714 36.571s-109.714-16.428-109.714-36.572v-24.286c23.572 16.572 66.714 24.286 109.714 24.286zM109.714 219.429c43 0 86.143-7.714 109.714-24.286v24.286c0 20.143-49.143 36.571-109.714 36.571s-109.714-16.428-109.714-36.572v-24.286c23.572 16.572 66.714 24.286 109.714 24.286zM109.714 164.571c43 0 86.143-7.714 109.714-24.286v24.286c0 20.143-49.143 36.571-109.714 36.571s-109.714-16.428-109.714-36.572v-24.286c23.572 16.572 66.714 24.286 109.714 24.286zM109.714 0c60.572 0 109.714 16.428 109.714 36.572v18.286c0 20.143-49.143 36.572-109.714 36.572s-109.714-16.428-109.714-36.572v-18.286c0-20.143 49.143-36.572 109.714-36.572z"></path>
</svg>
