<?xml version="1.0" encoding="utf-8"?>
<!-- Generated by IcoMoon.io -->
<!DOCTYPE svg PUBLIC "-//W3C//DTD SVG 1.1//EN" "http://www.w3.org/Graphics/SVG/1.1/DTD/svg11.dtd">
<svg version="1.1" xmlns="http://www.w3.org/2000/svg" xmlns:xlink="http://www.w3.org/1999/xlink" width="274" height="256" viewBox="0 0 274 256">
<path fill="#fff" d="M256 141.714v-118.857c0-2.428-2.143-4.572-4.572-4.572h-228.571c-2.428 0-4.572 2.143-4.572 4.572v118.857c0 2.429 2.143 4.572 4.572 4.572h228.571c2.429 0 4.572-2.143 4.572-4.572zM274.286 22.857v155.429c0 12.572-10.286 22.857-22.857 22.857h-77.714c0 12.143 9.143 22.429 9.143 27.429s-4.143 9.143-9.143 9.143h-73.143c-5 0-9.143-4.143-9.143-9.143 0-5.286 9.143-15 9.143-27.428h-77.714c-12.572 0-22.857-10.286-22.857-22.857v-155.429c0-12.572 10.286-22.857 22.857-22.857h228.572c12.572 0 22.857 10.286 22.857 22.857z"></path>
</svg>
