<?xml version="1.0" encoding="utf-8"?>
<!-- Generated by IcoMoon.io -->
<!DOCTYPE svg PUBLIC "-//W3C//DTD SVG 1.1//EN" "http://www.w3.org/Graphics/SVG/1.1/DTD/svg11.dtd">
<svg version="1.1" xmlns="http://www.w3.org/2000/svg" xmlns:xlink="http://www.w3.org/1999/xlink" width="256" height="256" viewBox="0 0 256 256">
<path fill="#fff" d="M256 101.428v113.428c0 12.571-10.286 22.857-22.857 22.857h-210.286c-12.572 0-22.857-10.286-22.857-22.857v-113.428c4.286 4.714 9.143 8.857 14.428 12.428 23.714 16.143 47.714 32.286 71 49.286 12 8.857 26.857 19.714 42.428 19.714h0.286c15.572 0 30.428-10.857 42.428-19.714 23.286-16.857 47.286-33.143 71.143-49.286 5.143-3.572 10-7.714 14.286-12.428zM256 59.428c0 16-11.857 30.428-24.428 39.143-22.286 15.428-44.714 30.857-66.857 46.429-9.286 6.428-25 19.572-36.571 19.572h-0.286c-11.572 0-27.286-13.143-36.572-19.572-22.143-15.572-44.572-31-66.714-46.428-10.143-6.857-24.572-23-24.572-36 0-14 7.572-26 22.857-26h210.286c12.428 0 22.857 10.286 22.857 22.857z"></path>
</svg>
