<?xml version="1.0" encoding="utf-8"?>
<!-- Generated by IcoMoon.io -->
<!DOCTYPE svg PUBLIC "-//W3C//DTD SVG 1.1//EN" "http://www.w3.org/Graphics/SVG/1.1/DTD/svg11.dtd">
<svg version="1.1" xmlns="http://www.w3.org/2000/svg" xmlns:xlink="http://www.w3.org/1999/xlink" width="219" height="256" viewBox="0 0 219 256">
<path fill="#fff" d="M178.286 18.286c22.714 0 41.143 18.428 41.143 41.143v137.143c0 22.714-18.429 41.143-41.143 41.143h-26.857v-85h28.429l4.286-33.143h-32.714v-21.143c0-9.572 2.571-16 16.428-16l17.428-0.143v-29.572c-3-0.428-13.428-1.286-25.428-1.286-25.286 0-42.714 15.428-42.714 43.714v24.428h-28.572v33.143h28.572v85h-76c-22.714 0-41.143-18.428-41.143-41.143v-137.143c0-22.714 18.428-41.143 41.143-41.143h137.143z"></path>
</svg>
