<?xml version="1.0" encoding="utf-8"?>
<!-- Generated by IcoMoon.io -->
<!DOCTYPE svg PUBLIC "-//W3C//DTD SVG 1.1//EN" "http://www.w3.org/Graphics/SVG/1.1/DTD/svg11.dtd">
<svg version="1.1" xmlns="http://www.w3.org/2000/svg" xmlns:xlink="http://www.w3.org/1999/xlink" width="219" height="256" viewBox="0 0 219 256">
<path fill="#fff" d="M209.714 68c1.429 1.428 2.714 3.143 4 5.143h-67.428v-67.428c2 1.286 3.714 2.572 5.143 4zM141.714 91.428h77.714v150.857c0 7.572-6.143 13.714-13.714 13.714h-192c-7.572 0-13.714-6.143-13.714-13.714v-228.571c0-7.572 6.143-13.714 13.714-13.714h114.286v77.714c0 7.572 6.143 13.714 13.714 13.714zM164.571 196.571v-9.143c0-2.571-2-4.572-4.571-4.572h-100.572c-2.572 0-4.572 2-4.572 4.572v9.143c0 2.571 2 4.571 4.572 4.571h100.572c2.571 0 4.572-2 4.572-4.572zM164.571 160v-9.143c0-2.571-2-4.571-4.571-4.571h-100.572c-2.572 0-4.572 2-4.572 4.572v9.143c0 2.571 2 4.571 4.572 4.571h100.572c2.571 0 4.572-2 4.572-4.572zM164.571 123.428v-9.143c0-2.572-2-4.572-4.571-4.572h-100.572c-2.572 0-4.572 2-4.572 4.572v9.143c0 2.572 2 4.571 4.572 4.571h100.572c2.571 0 4.572-2 4.572-4.572z"></path>
</svg>
