<?xml version="1.0" encoding="utf-8"?>
<!-- Generated by IcoMoon.io -->
<!DOCTYPE svg PUBLIC "-//W3C//DTD SVG 1.1//EN" "http://www.w3.org/Graphics/SVG/1.1/DTD/svg11.dtd">
<svg version="1.1" xmlns="http://www.w3.org/2000/svg" xmlns:xlink="http://www.w3.org/1999/xlink" width="219" height="256" viewBox="0 0 219 256">
<path fill="#fff" d="M109.714 18.286c60.572 0 109.714 49.143 109.714 109.714 0 48.428-31.429 89.572-75 104.143-5.571 1-7.571-2.429-7.571-5.286 0-3.571 0.143-15.429 0.143-30.143 0-10.286-3.429-16.857-7.429-20.286 24.428-2.714 50.143-12 50.143-54.143 0-12-4.286-21.714-11.286-29.428 1.143-2.857 4.857-14-1.143-29.143-9.143-2.857-30.143 11.286-30.143 11.286-8.714-2.428-18.143-3.714-27.428-3.714s-18.714 1.286-27.428 3.714c0 0-21-14.143-30.143-11.286-6 15.143-2.286 26.286-1.143 29.143-7 7.714-11.286 17.428-11.286 29.428 0 42 25.571 51.428 50 54.143-3.143 2.857-6 7.714-7 14.714-6.286 2.857-22.286 7.714-31.857-9.143-6-10.428-16.857-11.286-16.857-11.286-10.714-0.143-0.714 6.714-0.714 6.714 7.143 3.286 12.143 16 12.143 16 6.428 19.572 37 13 37 13 0 9.143 0.143 17.714 0.143 20.428 0 2.857-2 6.286-7.572 5.286-43.572-14.572-75-55.714-75-104.143 0-60.572 49.143-109.714 109.714-109.714zM41.572 175.857c0.286-0.571-0.143-1.286-1-1.714-0.857-0.286-1.572-0.143-1.857 0.286-0.286 0.571 0.143 1.286 1 1.714 0.714 0.429 1.572 0.286 1.857-0.286zM46 180.714c0.572-0.429 0.428-1.429-0.286-2.286-0.714-0.714-1.714-1-2.286-0.429-0.572 0.429-0.428 1.429 0.286 2.286 0.714 0.714 1.714 1 2.286 0.429zM50.286 187.143c0.714-0.571 0.714-1.714 0-2.714-0.572-1-1.714-1.429-2.428-0.857-0.714 0.429-0.714 1.571 0 2.571s1.857 1.429 2.428 1zM56.286 193.143c0.572-0.571 0.286-1.857-0.572-2.714-1-1-2.286-1.143-2.857-0.429-0.714 0.571-0.428 1.857 0.572 2.714 1 1 2.286 1.143 2.857 0.429zM64.428 196.714c0.286-0.857-0.572-1.857-1.857-2.286-1.143-0.286-2.428 0.143-2.714 1s0.572 1.857 1.857 2.143c1.143 0.429 2.429 0 2.714-0.857zM73.428 197.429c0-1-1.143-1.714-2.428-1.571-1.286 0-2.286 0.714-2.286 1.571 0 1 1 1.714 2.428 1.571 1.286 0 2.286-0.714 2.286-1.571zM81.714 196c-0.143-0.857-1.286-1.429-2.572-1.286-1.286 0.286-2.143 1.143-2 2.143 0.143 0.857 1.286 1.429 2.572 1.143s2.143-1.143 2-2z"></path>
</svg>
