<?xml version="1.0" encoding="utf-8"?>
<!-- Generated by IcoMoon.io -->
<!DOCTYPE svg PUBLIC "-//W3C//DTD SVG 1.1//EN" "http://www.w3.org/Graphics/SVG/1.1/DTD/svg11.dtd">
<svg version="1.1" xmlns="http://www.w3.org/2000/svg" xmlns:xlink="http://www.w3.org/1999/xlink" width="219" height="256" viewBox="0 0 219 256">
<path fill="#fff" d="M74.143 171.429v0c0.286-0.429 0.143-1.286-0.428-1.857-0.714-0.571-1.572-0.714-2-0.286-0.286 0.429-0.143 1.286 0.428 1.857 0.714 0.571 1.572 0.714 2 0.286zM70.143 165.571c-0.428-0.571-1.143-0.857-1.714-0.571-0.428 0.286-0.428 1.143 0 1.714 0.572 0.714 1.286 1 1.714 0.714v0c0.428-0.286 0.428-1.143 0-1.857zM64.286 159.857v0c0.143-0.286-0.143-0.857-0.714-1.143-0.428-0.143-1-0.143-1.143 0.286-0.286 0.429 0 0.857 0.572 1.143 0.572 0.143 1.143 0.143 1.286-0.286zM67.286 163.143v0c0.286-0.286 0.286-1-0.286-1.429-0.428-0.571-1.143-0.714-1.428-0.429-0.428 0.429-0.286 1 0.143 1.571 0.428 0.429 1.143 0.714 1.572 0.286zM79.572 173.857v0c0.143-0.571-0.428-1.286-1.286-1.571s-1.572 0-1.857 0.571c-0.143 0.571 0.428 1.286 1.286 1.571s1.572 0 1.857-0.571zM85.572 174.286v0c0-0.571-0.714-1.143-1.714-1.143-0.857 0-1.428 0.571-1.428 1.143s0.714 1.143 1.572 1.143 1.572-0.571 1.572-1.143zM91.143 173.286v0c-0.143-0.571-1-0.857-1.857-0.714s-1.428 0.714-1.286 1.286 0.857 1 1.714 0.857 1.428-0.857 1.428-1.429zM182.857 128c0-40.428-32.714-73.143-73.143-73.143s-73.143 32.714-73.143 73.143c0 32.286 21 59.714 50 69.428 3.714 0.714 5-1.571 5-3.571 0-1.714 0-7.429-0.143-13.571 0 0-20.286 4.428-24.572-8.714 0 0-3.286-8.428-8.143-10.572 0 0-6.572-4.572 0.572-4.572 0 0 7.143 0.571 11.143 7.572 6.428 11.286 17.143 8 21.286 6.143 0.714-4.714 2.572-8 4.714-9.857-16.286-1.857-33.428-8.143-33.428-36.143 0-8 2.857-14.428 7.572-19.572-0.714-1.857-3.286-9.286 0.714-19.428 6.143-1.857 20.143 7.572 20.143 7.572 5.857-1.714 12-2.428 18.286-2.428s12.428 0.714 18.286 2.428c0 0 14-9.428 20.143-7.572 4 10.143 1.429 17.572 0.714 19.428 4.714 5.143 7.571 11.572 7.571 19.572 0 28.143-17.143 34.286-33.428 36.143 2.572 2.286 5 6.714 5 13.572 0 9.714-0.143 17.572-0.143 20 0 2 1.286 4.286 5 3.571 29-9.714 50-37.143 50-69.428zM219.429 59.428v137.143c0 22.714-18.429 41.143-41.143 41.143h-137.143c-22.714 0-41.143-18.429-41.143-41.143v-137.143c0-22.714 18.428-41.143 41.143-41.143h137.143c22.714 0 41.143 18.428 41.143 41.143z"></path>
</svg>
