<?xml version="1.0" encoding="utf-8"?>
<!-- Generated by IcoMoon.io -->
<!DOCTYPE svg PUBLIC "-//W3C//DTD SVG 1.1//EN" "http://www.w3.org/Graphics/SVG/1.1/DTD/svg11.dtd">
<svg version="1.1" xmlns="http://www.w3.org/2000/svg" xmlns:xlink="http://www.w3.org/1999/xlink" width="329" height="256" viewBox="0 0 329 256">
<path fill="#fff" d="M253.429 119.428l2.571 45.143c1.143 20.143-41 36.571-91.428 36.571s-92.572-16.428-91.428-36.572l2.572-45.143 82 25.857c2.286 0.714 4.571 1 6.857 1s4.572-0.286 6.857-1zM329.143 73.143c0 2-1.286 3.714-3.143 4.428l-160 50.286c-0.571 0.143-1 0.143-1.429 0.143s-0.857 0-1.429-0.143l-93.143-29.428c-8.143 6.428-13.857 22.143-15 41.428 5.428 3.143 9 8.857 9 15.571 0 6.428-3.286 12-8.286 15.286l8.286 61.857c0.143 1.286-0.286 2.571-1.143 3.571s-2.143 1.571-3.428 1.571h-27.428c-1.286 0-2.572-0.571-3.428-1.571s-1.286-2.286-1.143-3.571l8.286-61.857c-5-3.286-8.286-8.857-8.286-15.286 0-6.857 3.857-12.714 9.286-15.857 0.857-16.714 5.143-34.714 14-47.143l-47.572-14.857c-1.857-0.714-3.143-2.428-3.143-4.428s1.286-3.714 3.143-4.428l160-50.286c0.571-0.143 1-0.143 1.429-0.143s0.857 0 1.429 0.143l160 50.286c1.857 0.714 3.143 2.428 3.143 4.428z"></path>
</svg>
