<?xml version="1.0" encoding="utf-8"?>
<!-- Generated by IcoMoon.io -->
<!DOCTYPE svg PUBLIC "-//W3C//DTD SVG 1.1//EN" "http://www.w3.org/Graphics/SVG/1.1/DTD/svg11.dtd">
<svg version="1.1" xmlns="http://www.w3.org/2000/svg" xmlns:xlink="http://www.w3.org/1999/xlink" width="219" height="256" viewBox="0 0 219 256">
<path fill="#fff" d="M33.857 202h33v-99.143h-33v99.143zM69 72.286c-0.143-9.714-7.143-17.143-18.428-17.143s-18.714 7.428-18.714 17.143c0 9.428 7.143 17.143 18.286 17.143h0.143c11.572 0 18.714-7.714 18.714-17.143zM152.571 202h33v-56.857c0-30.428-16.286-44.572-38-44.572-17.714 0-25.572 9.857-29.857 16.714h0.286v-14.428h-33s0.428 9.286 0 99.143v0h33v-55.428c0-2.857 0.143-5.857 1-8 2.428-5.857 7.857-12 17-12 11.857 0 16.572 9 16.572 22.428v53zM219.429 59.428v137.143c0 22.714-18.429 41.143-41.143 41.143h-137.143c-22.714 0-41.143-18.429-41.143-41.143v-137.143c0-22.714 18.428-41.143 41.143-41.143h137.143c22.714 0 41.143 18.428 41.143 41.143z"></path>
</svg>
