<?xml version="1.0" encoding="utf-8"?>
<!-- Generated by IcoMoon.io -->
<!DOCTYPE svg PUBLIC "-//W3C//DTD SVG 1.1//EN" "http://www.w3.org/Graphics/SVG/1.1/DTD/svg11.dtd">
<svg version="1.1" xmlns="http://www.w3.org/2000/svg" xmlns:xlink="http://www.w3.org/1999/xlink" width="110" height="256" viewBox="0 0 110 256">
<path fill="#fff" d="M66.286 201.143c0-6.286-5.143-11.429-11.428-11.429s-11.428 5.143-11.428 11.428 5.143 11.428 11.428 11.428 11.428-5.143 11.428-11.428zM96 178.286v-100.572c0-2.428-2.143-4.572-4.572-4.572h-73.143c-2.428 0-4.572 2.143-4.572 4.572v100.572c0 2.429 2.143 4.572 4.572 4.572h73.143c2.428 0 4.572-2.143 4.572-4.572zM68.572 57.143c0-1.286-1-2.286-2.286-2.286h-22.857c-1.286 0-2.286 1-2.286 2.286s1 2.286 2.286 2.286h22.857c1.286 0 2.286-1 2.286-2.286zM109.714 54.857v146.286c0 10-8.286 18.286-18.286 18.286h-73.143c-10 0-18.286-8.286-18.286-18.286v-146.286c0-10 8.286-18.286 18.286-18.286h73.143c10 0 18.286 8.286 18.286 18.286z"></path>
</svg>
