<?xml version="1.0" encoding="utf-8"?>
<!-- Generated by IcoMoon.io -->
<!DOCTYPE svg PUBLIC "-//W3C//DTD SVG 1.1//EN" "http://www.w3.org/Graphics/SVG/1.1/DTD/svg11.dtd">
<svg version="1.1" xmlns="http://www.w3.org/2000/svg" xmlns:xlink="http://www.w3.org/1999/xlink" width="238" height="256" viewBox="0 0 238 256">
<path fill="#fff" d="M237.714 92.428c0 2.572-1.857 5-3.714 6.857l-51.857 50.572 12.286 71.429c0.143 1 0.143 1.857 0.143 2.857 0 3.714-1.714 7.143-5.857 7.143-2 0-4-0.714-5.714-1.714l-64.143-33.714-64.143 33.714c-1.857 1-3.714 1.714-5.714 1.714-4.143 0-6-3.429-6-7.143 0-1 0.143-1.857 0.286-2.857l12.286-71.428-52-50.572c-1.714-1.857-3.571-4.286-3.571-6.857 0-4.286 4.428-6 8-6.572l71.714-10.428 32.143-65c1.286-2.714 3.714-5.857 7-5.857s5.714 3.143 7 5.857l32.143 65 71.714 10.428c3.429 0.572 8 2.286 8 6.572z"></path>
</svg>
