<?xml version="1.0" encoding="utf-8"?>
<!-- Generated by IcoMoon.io -->
<!DOCTYPE svg PUBLIC "-//W3C//DTD SVG 1.1//EN" "http://www.w3.org/Graphics/SVG/1.1/DTD/svg11.dtd">
<svg version="1.1" xmlns="http://www.w3.org/2000/svg" xmlns:xlink="http://www.w3.org/1999/xlink" width="229" height="256" viewBox="0 0 229 256">
<path fill="#fff" d="M36.572 192c0-5-4.143-9.143-9.143-9.143-5.143 0-9.143 4.143-9.143 9.143 0 5.143 4 9.143 9.143 9.143 5 0 9.143-4 9.143-9.143zM59.428 118.857v91.429c0 5-4.143 9.143-9.143 9.143h-41.143c-5 0-9.143-4.143-9.143-9.143v-91.428c0-5 4.143-9.143 9.143-9.143h41.143c5 0 9.143 4.143 9.143 9.143zM228.571 118.857c0 7.572-3 15.714-7.857 21.286 1.571 4.571 2.143 8.857 2.143 10.857 0.286 7.143-1.857 13.857-6.143 19.572 1.571 5.286 1.571 11 0 16.714-1.429 5.286-4.143 10-7.714 13.428 0.857 10.714-1.571 19.428-7 25.857-6.143 7.286-15.572 11-28.143 11.143h-18.429c-20.428 0-39.714-6.714-55.143-12-9-3.143-17.572-6.143-22.572-6.286-4.857-0.143-9.143-4.143-9.143-9.143v-91.572c0-4.714 4-8.714 8.714-9.143 5.286-0.428 19-17.428 25.286-25.714 5.143-6.572 10-12.714 14.428-17.143 5.572-5.572 7.143-14.143 8.857-22.428 1.572-8.428 3.286-17.286 9.429-23.286 1.714-1.714 4-2.714 6.428-2.714 32 0 32 25.572 32 36.572 0 11.714-4.143 20-8 27.428-1.571 3.143-3 4.572-4.143 9.143h39.571c14.857 0 27.428 12.572 27.428 27.428z"></path>
</svg>
