<svg version="1.0" xmlns="http://www.w3.org/2000/svg"
 width="1024.000000pt" height="768.000000pt" viewBox="0 0 1024.000000 768.000000"
 preserveAspectRatio="xMidYMid meet">
<g transform="translate(0.000000,768.000000) scale(0.100000,-0.100000)"
 stroke="none">
<path d="M10070 2317 l0 -103 -65 -64 -65 -64 0 -826 0 -825 -78 -78 -77 -77
-833 0 -832 0 -31 -50 -30 -49 -147 -3 -147 -3 -3 -67 -3 -68 283 0 283 0 28
50 28 50 762 1 762 1 103 114 102 114 0 719 0 719 50 45 50 45 0 261 0 261
-70 0 -70 0 0 -103z" fill="#00397A"/>
<path d="M10163 1820 l-33 -30 0 -718 0 -719 -111 -121 -111 -122 -755 -2
-756 -3 -24 -38 -23 -37 809 0 810 0 120 138 120 137 1 773 c0 424 -3 772 -7
772 -5 0 -23 -14 -40 -30z" fill="#1497FC"/>
</g>
</svg>