<svg style="position: absolute; width: 0; height: 0; overflow: hidden;" version="1.1" xmlns="http://www.w3.org/2000/svg" xmlns:xlink="http://www.w3.org/1999/xlink">
<defs>
<symbol id="star" viewBox="0 0 238 256">
<title>star</title>
<path d="M237.714 92.428c0 2.572-1.857 5-3.714 6.857l-51.857 50.572 12.286 71.429c0.143 1 0.143 1.857 0.143 2.857 0 3.714-1.714 7.143-5.857 7.143-2 0-4-0.714-5.714-1.714l-64.143-33.714-64.143 33.714c-1.857 1-3.714 1.714-5.714 1.714-4.143 0-6-3.429-6-7.143 0-1 0.143-1.857 0.286-2.857l12.286-71.428-52-50.572c-1.714-1.857-3.571-4.286-3.571-6.857 0-4.286 4.428-6 8-6.572l71.714-10.428 32.143-65c1.286-2.714 3.714-5.857 7-5.857s5.714 3.143 7 5.857l32.143 65 71.714 10.428c3.429 0.572 8 2.286 8 6.572z"></path>
</symbol>
<symbol id="book" viewBox="0 0 238 256">
<title>book</title>
<path d="M234.143 68.286c3.571 5.143 4.571 11.857 2.571 18.428l-39.286 129.429c-3.571 12.143-16.143 21.571-28.428 21.571h-131.857c-14.572 0-30.143-11.572-35.428-26.428-2.286-6.428-2.286-12.714-0.286-18.143 0.286-2.857 0.857-5.714 1-9.143 0.143-2.286-1.143-4.143-0.857-5.857 0.571-3.429 3.571-5.857 5.857-9.714 4.286-7.143 9.143-18.714 10.714-26.143 0.714-2.714-0.714-5.857 0-8.286 0.714-2.714 3.428-4.714 4.857-7.286 3.857-6.572 8.857-19.286 9.572-26 0.286-3-1.143-6.286-0.286-8.572 1-3.286 4.143-4.714 6.286-7.572 3.428-4.714 9.143-18.286 10-25.857 0.286-2.428-1.143-4.857-0.714-7.428 0.572-2.714 4-5.572 6.286-8.857 6-8.857 7.143-28.428 25.286-23.286l-0.143 0.428c2.428-0.572 4.857-1.286 7.286-1.286h108.714c6.714 0 12.714 3 16.286 8 3.714 5.143 4.572 11.857 2.571 18.572l-39.143 129.429c-6.714 22-10.428 26.857-28.572 26.857h-124.143c-1.857 0-4.143 0.429-5.428 2.143-1.143 1.714-1.286 3-0.143 6.143 2.857 8.286 12.714 10 20.572 10h131.857c5.286 0 11.428-3 13-8.143l42.857-141c0.857-2.714 0.857-5.572 0.714-8.143 3.286 1.286 6.286 3.286 8.429 6.143zM82.143 68.572c-0.857 2.572 0.572 4.572 3.143 4.572h86.857c2.429 0 5.143-2 6-4.572l3-9.143c0.857-2.572-0.571-4.572-3.143-4.572h-86.857c-2.428 0-5.143 2-6 4.572zM70.286 105.143c-0.857 2.572 0.572 4.572 3.143 4.572h86.857c2.429 0 5.143-2 6-4.572l3-9.143c0.857-2.572-0.571-4.572-3.143-4.572h-86.857c-2.428 0-5.143 2-6 4.572z"></path>
</symbol>
<symbol id="bar-chart" viewBox="0 0 293 256">
<title>bar-chart</title>
<path d="M91.428 128v73.143h-36.572v-73.143h36.572zM146.286 54.857v146.286h-36.572v-146.286h36.572zM292.572 219.429v18.286h-292.572v-219.429h18.286v201.143h274.286zM201.143 91.428v109.714h-36.571v-109.714h36.572zM256 36.572v164.571h-36.572v-164.571h36.572z"></path>
</symbol>
<symbol id="linkedin-square" viewBox="0 0 219 256">
<title>linkedin-square</title>
<path d="M33.857 202h33v-99.143h-33v99.143zM69 72.286c-0.143-9.714-7.143-17.143-18.428-17.143s-18.714 7.428-18.714 17.143c0 9.428 7.143 17.143 18.286 17.143h0.143c11.572 0 18.714-7.714 18.714-17.143zM152.571 202h33v-56.857c0-30.428-16.286-44.572-38-44.572-17.714 0-25.572 9.857-29.857 16.714h0.286v-14.428h-33s0.428 9.286 0 99.143v0h33v-55.428c0-2.857 0.143-5.857 1-8 2.428-5.857 7.857-12 17-12 11.857 0 16.572 9 16.572 22.428v53zM219.429 59.428v137.143c0 22.714-18.429 41.143-41.143 41.143h-137.143c-22.714 0-41.143-18.429-41.143-41.143v-137.143c0-22.714 18.428-41.143 41.143-41.143h137.143c22.714 0 41.143 18.428 41.143 41.143z"></path>
</symbol>
<symbol id="facebook" viewBox="0 0 151 256">
<title>facebook</title>
<path d="M137 1.714v37.714h-22.428c-17.572 0-20.857 8.428-20.857 20.572v27h41.857l-5.571 42.286h-36.286v108.428h-43.714v-108.428h-36.428v-42.286h36.428v-31.143c0-36.143 22.143-55.857 54.428-55.857 15.428 0 28.714 1.143 32.572 1.714z"></path>
</symbol>
<symbol id="github" viewBox="0 0 219 256">
<title>github</title>
<path d="M109.714 18.286c60.572 0 109.714 49.143 109.714 109.714 0 48.428-31.429 89.572-75 104.143-5.571 1-7.571-2.429-7.571-5.286 0-3.571 0.143-15.429 0.143-30.143 0-10.286-3.429-16.857-7.429-20.286 24.428-2.714 50.143-12 50.143-54.143 0-12-4.286-21.714-11.286-29.428 1.143-2.857 4.857-14-1.143-29.143-9.143-2.857-30.143 11.286-30.143 11.286-8.714-2.428-18.143-3.714-27.428-3.714s-18.714 1.286-27.428 3.714c0 0-21-14.143-30.143-11.286-6 15.143-2.286 26.286-1.143 29.143-7 7.714-11.286 17.428-11.286 29.428 0 42 25.571 51.428 50 54.143-3.143 2.857-6 7.714-7 14.714-6.286 2.857-22.286 7.714-31.857-9.143-6-10.428-16.857-11.286-16.857-11.286-10.714-0.143-0.714 6.714-0.714 6.714 7.143 3.286 12.143 16 12.143 16 6.428 19.572 37 13 37 13 0 9.143 0.143 17.714 0.143 20.428 0 2.857-2 6.286-7.572 5.286-43.572-14.572-75-55.714-75-104.143 0-60.572 49.143-109.714 109.714-109.714zM41.572 175.857c0.286-0.571-0.143-1.286-1-1.714-0.857-0.286-1.572-0.143-1.857 0.286-0.286 0.571 0.143 1.286 1 1.714 0.714 0.429 1.572 0.286 1.857-0.286zM46 180.714c0.572-0.429 0.428-1.429-0.286-2.286-0.714-0.714-1.714-1-2.286-0.429-0.572 0.429-0.428 1.429 0.286 2.286 0.714 0.714 1.714 1 2.286 0.429zM50.286 187.143c0.714-0.571 0.714-1.714 0-2.714-0.572-1-1.714-1.429-2.428-0.857-0.714 0.429-0.714 1.571 0 2.571s1.857 1.429 2.428 1zM56.286 193.143c0.572-0.571 0.286-1.857-0.572-2.714-1-1-2.286-1.143-2.857-0.429-0.714 0.571-0.428 1.857 0.572 2.714 1 1 2.286 1.143 2.857 0.429zM64.428 196.714c0.286-0.857-0.572-1.857-1.857-2.286-1.143-0.286-2.428 0.143-2.714 1s0.572 1.857 1.857 2.143c1.143 0.429 2.429 0 2.714-0.857zM73.428 197.429c0-1-1.143-1.714-2.428-1.571-1.286 0-2.286 0.714-2.286 1.571 0 1 1 1.714 2.428 1.571 1.286 0 2.286-0.714 2.286-1.571zM81.714 196c-0.143-0.857-1.286-1.429-2.572-1.286-1.286 0.286-2.143 1.143-2 2.143 0.143 0.857 1.286 1.429 2.572 1.143s2.143-1.143 2-2z"></path>
</symbol>
<symbol id="flask" viewBox="0 0 238 256">
<title>flask</title>
<path d="M218.143 206.857c10.714 17 3.143 30.857-17 30.857h-164.571c-20.143 0-27.714-13.857-17-30.857l71.857-113.286v-57h-9.143c-5 0-9.143-4.143-9.143-9.143s4.143-9.143 9.143-9.143h73.143c5 0 9.143 4.143 9.143 9.143s-4.143 9.143-9.143 9.143h-9.143v57zM106.857 103.286l-38.857 61.286h101.714l-38.857-61.286-2.857-4.428v-62.286h-18.286v62.286z"></path>
</symbol>
<symbol id="envelope" viewBox="0 0 256 256">
<title>envelope</title>
<path d="M256 101.428v113.428c0 12.571-10.286 22.857-22.857 22.857h-210.286c-12.572 0-22.857-10.286-22.857-22.857v-113.428c4.286 4.714 9.143 8.857 14.428 12.428 23.714 16.143 47.714 32.286 71 49.286 12 8.857 26.857 19.714 42.428 19.714h0.286c15.572 0 30.428-10.857 42.428-19.714 23.286-16.857 47.286-33.143 71.143-49.286 5.143-3.572 10-7.714 14.286-12.428zM256 59.428c0 16-11.857 30.428-24.428 39.143-22.286 15.428-44.714 30.857-66.857 46.429-9.286 6.428-25 19.572-36.571 19.572h-0.286c-11.572 0-27.286-13.143-36.572-19.572-22.143-15.572-44.572-31-66.714-46.428-10.143-6.857-24.572-23-24.572-36 0-14 7.572-26 22.857-26h210.286c12.428 0 22.857 10.286 22.857 22.857z"></path>
</symbol>
<symbol id="desktop" viewBox="0 0 274 256">
<title>desktop</title>
<path d="M256 141.714v-118.857c0-2.428-2.143-4.572-4.572-4.572h-228.571c-2.428 0-4.572 2.143-4.572 4.572v118.857c0 2.429 2.143 4.572 4.572 4.572h228.571c2.429 0 4.572-2.143 4.572-4.572zM274.286 22.857v155.429c0 12.572-10.286 22.857-22.857 22.857h-77.714c0 12.143 9.143 22.429 9.143 27.429s-4.143 9.143-9.143 9.143h-73.143c-5 0-9.143-4.143-9.143-9.143 0-5.286 9.143-15 9.143-27.428h-77.714c-12.572 0-22.857-10.286-22.857-22.857v-155.429c0-12.572 10.286-22.857 22.857-22.857h228.572c12.572 0 22.857 10.286 22.857 22.857z"></path>
</symbol>
<symbol id="mobile" viewBox="0 0 110 256">
<title>mobile</title>
<path d="M66.286 201.143c0-6.286-5.143-11.429-11.428-11.429s-11.428 5.143-11.428 11.428 5.143 11.428 11.428 11.428 11.428-5.143 11.428-11.428zM96 178.286v-100.572c0-2.428-2.143-4.572-4.572-4.572h-73.143c-2.428 0-4.572 2.143-4.572 4.572v100.572c0 2.429 2.143 4.572 4.572 4.572h73.143c2.428 0 4.572-2.143 4.572-4.572zM68.572 57.143c0-1.286-1-2.286-2.286-2.286h-22.857c-1.286 0-2.286 1-2.286 2.286s1 2.286 2.286 2.286h22.857c1.286 0 2.286-1 2.286-2.286zM109.714 54.857v146.286c0 10-8.286 18.286-18.286 18.286h-73.143c-10 0-18.286-8.286-18.286-18.286v-146.286c0-10 8.286-18.286 18.286-18.286h73.143c10 0 18.286 8.286 18.286 18.286z"></path>
</symbol>
<symbol id="code" viewBox="0 0 274 256">
<title>code</title>
<path d="M88.143 199.857l-7.143 7.143c-1.857 1.857-4.714 1.857-6.572 0l-66.572-66.572c-1.857-1.857-1.857-4.714 0-6.572l66.572-66.572c1.857-1.857 4.714-1.857 6.572 0l7.143 7.143c1.857 1.857 1.857 4.714 0 6.572l-56.143 56.143 56.143 56.143c1.857 1.857 1.857 4.714 0 6.571zM172.571 47.428l-53.286 184.429c-0.714 2.429-3.286 3.857-5.572 3.143l-8.857-2.429c-2.428-0.714-3.857-3.286-3.143-5.714l53.286-184.429c0.714-2.428 3.286-3.857 5.571-3.143l8.857 2.428c2.429 0.714 3.857 3.286 3.143 5.714zM266.428 140.429l-66.572 66.571c-1.857 1.857-4.714 1.857-6.572 0l-7.143-7.143c-1.857-1.857-1.857-4.714 0-6.571l56.143-56.143-56.143-56.143c-1.857-1.857-1.857-4.714 0-6.572l7.143-7.143c1.857-1.857 4.714-1.857 6.572 0l66.572 66.572c1.857 1.857 1.857 4.714 0 6.571z"></path>
</symbol>
<symbol id="file-text" viewBox="0 0 219 256">
<title>file-text</title>
<path d="M209.714 68c1.429 1.428 2.714 3.143 4 5.143h-67.428v-67.428c2 1.286 3.714 2.572 5.143 4zM141.714 91.428h77.714v150.857c0 7.572-6.143 13.714-13.714 13.714h-192c-7.572 0-13.714-6.143-13.714-13.714v-228.571c0-7.572 6.143-13.714 13.714-13.714h114.286v77.714c0 7.572 6.143 13.714 13.714 13.714zM164.571 196.571v-9.143c0-2.571-2-4.572-4.571-4.572h-100.572c-2.572 0-4.572 2-4.572 4.572v9.143c0 2.571 2 4.571 4.572 4.571h100.572c2.571 0 4.572-2 4.572-4.572zM164.571 160v-9.143c0-2.571-2-4.571-4.571-4.571h-100.572c-2.572 0-4.572 2-4.572 4.572v9.143c0 2.571 2 4.571 4.572 4.571h100.572c2.571 0 4.572-2 4.572-4.572zM164.571 123.428v-9.143c0-2.572-2-4.572-4.571-4.572h-100.572c-2.572 0-4.572 2-4.572 4.572v9.143c0 2.572 2 4.571 4.572 4.571h100.572c2.571 0 4.572-2 4.572-4.572z"></path>
</symbol>
<symbol id="thumbs-up" viewBox="0 0 229 256">
<title>thumbs-up</title>
<path d="M36.572 192c0-5-4.143-9.143-9.143-9.143-5.143 0-9.143 4.143-9.143 9.143 0 5.143 4 9.143 9.143 9.143 5 0 9.143-4 9.143-9.143zM59.428 118.857v91.429c0 5-4.143 9.143-9.143 9.143h-41.143c-5 0-9.143-4.143-9.143-9.143v-91.428c0-5 4.143-9.143 9.143-9.143h41.143c5 0 9.143 4.143 9.143 9.143zM228.571 118.857c0 7.572-3 15.714-7.857 21.286 1.571 4.571 2.143 8.857 2.143 10.857 0.286 7.143-1.857 13.857-6.143 19.572 1.571 5.286 1.571 11 0 16.714-1.429 5.286-4.143 10-7.714 13.428 0.857 10.714-1.571 19.428-7 25.857-6.143 7.286-15.572 11-28.143 11.143h-18.429c-20.428 0-39.714-6.714-55.143-12-9-3.143-17.572-6.143-22.572-6.286-4.857-0.143-9.143-4.143-9.143-9.143v-91.572c0-4.714 4-8.714 8.714-9.143 5.286-0.428 19-17.428 25.286-25.714 5.143-6.572 10-12.714 14.428-17.143 5.572-5.572 7.143-14.143 8.857-22.428 1.572-8.428 3.286-17.286 9.429-23.286 1.714-1.714 4-2.714 6.428-2.714 32 0 32 25.572 32 36.572 0 11.714-4.143 20-8 27.428-1.571 3.143-3 4.572-4.143 9.143h39.571c14.857 0 27.428 12.572 27.428 27.428z"></path>
</symbol>
<symbol id="graduation-cap" viewBox="0 0 329 256">
<title>graduation-cap</title>
<path d="M253.429 119.428l2.571 45.143c1.143 20.143-41 36.571-91.428 36.571s-92.572-16.428-91.428-36.572l2.572-45.143 82 25.857c2.286 0.714 4.571 1 6.857 1s4.572-0.286 6.857-1zM329.143 73.143c0 2-1.286 3.714-3.143 4.428l-160 50.286c-0.571 0.143-1 0.143-1.429 0.143s-0.857 0-1.429-0.143l-93.143-29.428c-8.143 6.428-13.857 22.143-15 41.428 5.428 3.143 9 8.857 9 15.571 0 6.428-3.286 12-8.286 15.286l8.286 61.857c0.143 1.286-0.286 2.571-1.143 3.571s-2.143 1.571-3.428 1.571h-27.428c-1.286 0-2.572-0.571-3.428-1.571s-1.286-2.286-1.143-3.571l8.286-61.857c-5-3.286-8.286-8.857-8.286-15.286 0-6.857 3.857-12.714 9.286-15.857 0.857-16.714 5.143-34.714 14-47.143l-47.572-14.857c-1.857-0.714-3.143-2.428-3.143-4.428s1.286-3.714 3.143-4.428l160-50.286c0.571-0.143 1-0.143 1.429-0.143s0.857 0 1.429 0.143l160 50.286c1.857 0.714 3.143 2.428 3.143 4.428z"></path>
</symbol>
<symbol id="database" viewBox="0 0 219 256">
<title>database</title>
<path d="M109.714 109.714c43 0 86.143-7.714 109.714-24.286v24.286c0 20.143-49.143 36.571-109.714 36.571s-109.714-16.428-109.714-36.572v-24.286c23.572 16.572 66.714 24.286 109.714 24.286zM109.714 219.429c43 0 86.143-7.714 109.714-24.286v24.286c0 20.143-49.143 36.571-109.714 36.571s-109.714-16.428-109.714-36.572v-24.286c23.572 16.572 66.714 24.286 109.714 24.286zM109.714 164.571c43 0 86.143-7.714 109.714-24.286v24.286c0 20.143-49.143 36.571-109.714 36.571s-109.714-16.428-109.714-36.572v-24.286c23.572 16.572 66.714 24.286 109.714 24.286zM109.714 0c60.572 0 109.714 16.428 109.714 36.572v18.286c0 20.143-49.143 36.572-109.714 36.572s-109.714-16.428-109.714-36.572v-18.286c0-20.143 49.143-36.572 109.714-36.572z"></path>
</symbol>
</svg>
